<svg width="20" height="20" viewBox="0 0 20 20" fill="none" xmlns="http://www.w3.org/2000/svg">
<path d="M9.99967 19.1667C7.83301 19.1667 5.74967 18.3334 4.08301 16.75C0.833008 13.5 0.833008 8.16669 4.08301 4.91669C4.41634 4.58335 4.91634 4.58335 5.24967 4.91669C5.58301 5.25002 5.58301 5.75002 5.24967 6.08335C2.66634 8.66669 2.66634 12.9167 5.24967 15.5C7.83301 18.0834 12.083 18.0834 14.6663 15.5C17.2497 12.9167 17.2497 8.66669 14.6663 6.08335C14.333 5.75002 14.333 5.25002 14.6663 4.91669C14.9997 4.58335 15.4997 4.58335 15.833 4.91669C19.083 8.16669 19.083 13.4167 15.833 16.6667C14.2497 18.3334 12.1663 19.1667 9.99967 19.1667Z" fill="#7C8592"/>
<path d="M10.0003 10.8333C9.50033 10.8333 9.16699 10.5 9.16699 9.99998V1.66665C9.16699 1.16665 9.50033 0.833313 10.0003 0.833313C10.5003 0.833313 10.8337 1.16665 10.8337 1.66665V9.99998C10.8337 10.5 10.5003 10.8333 10.0003 10.8333Z" fill="#7C8592"/>
</svg>
